<svg xmlns="http://www.w3.org/2000/svg" viewBox="0 0 18 18"><defs><style>.cls-1{fill:#f9f9f9;}.cls-2{fill:#494846;}</style></defs><title>accomplished-orders</title><g id="Слой_2" data-name="Слой 2"><g id="Слой_1-2" data-name="Слой 1"><rect class="cls-1" x="0.5" y="0.5" width="17" height="17" rx="1.5" ry="1.5"/><path class="cls-2" d="M16,1a1,1,0,0,1,1,1V16a1,1,0,0,1-1,1H2a1,1,0,0,1-1-1V2A1,1,0,0,1,2,1H16m0-1H2A2,2,0,0,0,0,2V16a2,2,0,0,0,2,2H16a2,2,0,0,0,2-2V2a2,2,0,0,0-2-2Z"/><path class="cls-2" d="M8.39,12.05h0a.75.75,0,0,1-.55-.25L5.77,9.52a.75.75,0,1,1,1.11-1L8.41,10.2l3.8-4a.75.75,0,1,1,1.09,1L8.94,11.82A.75.75,0,0,1,8.39,12.05Z"/></g></g></svg>