<svg xmlns="http://www.w3.org/2000/svg" viewBox="0 0 18 18"><defs><style>.cls-1,.cls-2{fill:none;stroke-linecap:round;stroke-miterlimit:10;stroke-width:2px;}.cls-1{stroke:#494846;}.cls-2{stroke:#4d4d4d;}.cls-3{fill:#494846;}</style></defs><title>download</title><g id="Слой_2" data-name="Слой 2"><g id="Слой_1-2" data-name="Слой 1"><path class="cls-1" d="M14.54,6.32"/><path class="cls-1" d="M4.85,6.32"/><path class="cls-1" d="M9.69,13.27"/><path class="cls-1" d="M9.69,6.32"/><path class="cls-2" d="M13.85,9.09"/><path class="cls-2" d="M4.15,9.09"/><path class="cls-2" d="M9,16"/><path class="cls-3" d="M15.5,1A1.5,1.5,0,0,1,17,2.5v13A1.5,1.5,0,0,1,15.5,17H2.5A1.5,1.5,0,0,1,1,15.5V2.5A1.5,1.5,0,0,1,2.5,1h13m0-1H2.5A2.5,2.5,0,0,0,0,2.5v13A2.5,2.5,0,0,0,2.5,18h13A2.5,2.5,0,0,0,18,15.5V2.5A2.5,2.5,0,0,0,15.5,0Z"/><line class="cls-1" x1="3.46" y1="4.24" x2="14.54" y2="4.24"/><line class="cls-1" x1="9" y1="4.24" x2="9" y2="13.53"/><path class="cls-3" d="M12.85,10.64H5.15L8.6,15a.59.59,0,0,0,.8,0l3.44-4.4"/></g></g></svg>