<svg xmlns="http://www.w3.org/2000/svg" viewBox="0 0 18 18"><defs><style>.cls-1{fill:#494846;}.cls-2{fill:#4d4d4d;}.cls-3{fill:#e2902d;}.cls-4{fill:#c63843;}</style></defs><title>edit-colored</title><g id="Слой_2" data-name="Слой 2"><g id="Слой_1-2" data-name="Слой 1"><path class="cls-1" d="M15.5.5a2,2,0,0,1,2,2v13a2,2,0,0,1-2,2H2.5a2,2,0,0,1-2-2V2.5a2,2,0,0,1,2-2h13m0-.5H2.5A2.5,2.5,0,0,0,0,2.5v13A2.5,2.5,0,0,0,2.5,18h13A2.5,2.5,0,0,0,18,15.5V2.5A2.5,2.5,0,0,0,15.5,0Z"/><path class="cls-2" d="M2.91,14.85a.23.23,0,0,0,.29.27L6,14.38,3.5,12Z"/><polygon class="cls-3" points="4.2 11.28 6.7 13.76 13.03 7.42 10.55 4.94 4.2 11.28"/><path class="cls-4" d="M14.79,4.2l-1.06-1a1,1,0,0,0-1.43,0L11.19,4.27,13.7,6.75l1.1-1.11A1,1,0,0,0,14.79,4.2Z"/></g></g></svg>