<svg xmlns="http://www.w3.org/2000/svg" viewBox="0 0 18 18"><defs><style>.cls-1{fill:#4d4d4d;}.cls-2{fill:none;}</style></defs><title>mail_1</title><g id="Слой_2" data-name="Слой 2"><g id="Слой_1-2" data-name="Слой 1"><path class="cls-1" d="M15.5,2.19H2.5A2.5,2.5,0,0,0,0,4.69v8.62a2.5,2.5,0,0,0,2.5,2.5h13a2.5,2.5,0,0,0,2.5-2.5V4.69A2.5,2.5,0,0,0,15.5,2.19Zm-13,1h13A1.5,1.5,0,0,1,17,4.69v.43l-7,5.31a1.77,1.77,0,0,1-2.11,0L1,5.17V4.69A1.5,1.5,0,0,1,2.5,3.19Zm13,11.62H2.5A1.5,1.5,0,0,1,1,13.31V6.42l6.33,4.81a2.77,2.77,0,0,0,3.32,0L17,6.38v6.93A1.5,1.5,0,0,1,15.5,14.81Z"/><rect class="cls-2" width="18" height="18"/></g></g></svg>