<svg xmlns="http://www.w3.org/2000/svg" viewBox="0 0 18 18"><defs><style>.cls-1{fill:#4d4d4d;}.cls-2,.cls-3{fill:none;}.cls-2{stroke:#4d4d4d;stroke-miterlimit:10;}</style></defs><title>mail_1</title><g id="Слой_2" data-name="Слой 2"><g id="Слой_1-2" data-name="Слой 1"><path class="cls-1" d="M15.5,3.19A1.5,1.5,0,0,1,17,4.69v8.62a1.5,1.5,0,0,1-1.5,1.5H2.5A1.5,1.5,0,0,1,1,13.31V4.69a1.5,1.5,0,0,1,1.5-1.5h13m0-1H2.5A2.5,2.5,0,0,0,0,4.69v8.62a2.5,2.5,0,0,0,2.5,2.5h13a2.5,2.5,0,0,0,2.5-2.5V4.69a2.5,2.5,0,0,0-2.5-2.5Z"/><path class="cls-2" d="M.45,5.38l7.19,5.45a2.25,2.25,0,0,0,2.71,0l7.27-5.55"/><rect class="cls-3" width="18" height="18"/></g></g></svg>