<svg xmlns="http://www.w3.org/2000/svg" viewBox="0 0 18 18"><defs><style>.cls-1{fill:#f9f9f9;}.cls-2{fill:#494846;}</style></defs><title>outstanding-orders</title><g id="Слой_2" data-name="Слой 2"><g id="Слой_1-2" data-name="Слой 1"><rect class="cls-1" x="0.5" y="0.5" width="17" height="17" rx="1.5" ry="1.5"/><path class="cls-2" d="M16,1a1,1,0,0,1,1,1V16a1,1,0,0,1-1,1H2a1,1,0,0,1-1-1V2A1,1,0,0,1,2,1H16m0-1H2A2,2,0,0,0,0,2V16a2,2,0,0,0,2,2H16a2,2,0,0,0,2-2V2a2,2,0,0,0-2-2Z"/><path class="cls-2" d="M12.17,11.08,10.09,9l2.08-2.08a.77.77,0,0,0-1.09-1.09L9,7.91,6.92,5.84A.77.77,0,0,0,5.83,6.92L7.91,9,5.83,11.08a.77.77,0,1,0,1.09,1.09L9,10.09l2.08,2.08a.77.77,0,1,0,1.09-1.09Z"/></g></g></svg>