<svg xmlns="http://www.w3.org/2000/svg" viewBox="0 0 18 18"><defs><style>.cls-1{fill:#f9f9f9;}.cls-2{fill:#494846;}.cls-3{fill:#19841f;}</style></defs><title>reserve-plus</title><g id="Слой_2" data-name="Слой 2"><g id="Слой_1-2" data-name="Слой 1"><rect class="cls-1" x="0.5" y="1.35" width="17" height="16.15" rx="2" ry="2"/><path class="cls-2" d="M15.5,1.85A1.5,1.5,0,0,1,17,3.35V15.5A1.5,1.5,0,0,1,15.5,17H2.5A1.5,1.5,0,0,1,1,15.5V3.35a1.5,1.5,0,0,1,1.5-1.5h13m0-1H2.5A2.5,2.5,0,0,0,0,3.35V15.5A2.5,2.5,0,0,0,2.5,18h13A2.5,2.5,0,0,0,18,15.5V3.35A2.5,2.5,0,0,0,15.5.85Z"/><path class="cls-1" d="M6.33,4.21A1.85,1.85,0,0,1,6.33.5h5.33a1.85,1.85,0,0,1,0,3.71Z"/><path class="cls-2" d="M11.67,1a1.35,1.35,0,0,1,0,2.7H6.33a1.35,1.35,0,0,1,0-2.7h5.33m0-1H6.33A2.34,2.34,0,0,0,4,2.34v0A2.34,2.34,0,0,0,6.33,4.7h5.33A2.34,2.34,0,0,0,14,2.36v0A2.34,2.34,0,0,0,11.67,0Z"/><path class="cls-3" d="M13.88,6.88v6.78H12V8.55A3.86,3.86,0,0,1,10.59,9V8.07a2.54,2.54,0,0,0,2.1-1.19Z"/><path class="cls-3" d="M8.46,10H7.2V8.74A.62.62,0,0,0,6,8.74V10H4.71a.62.62,0,0,0,0,1.25H6v1.26a.62.62,0,0,0,1.24,0V11.25H8.46a.62.62,0,0,0,0-1.25Z"/></g></g></svg>